<svg width="33" height="6" viewBox="0 0 33 6" fill="none" xmlns="http://www.w3.org/2000/svg">
  <path
    d="M-4.86057e-05 2.62468C-4.86057e-05 2.03233 0.0603254 1.55617 0.181073 1.19621C0.3041 0.833965 0.485222 0.554878 0.72444 0.358947C0.965936 0.163016 1.26894 0.0650507 1.63347 0.0650507C1.9023 0.0650507 2.1381 0.119729 2.34087 0.229086C2.54363 0.336164 2.71109 0.492225 2.84323 0.697269C2.97536 0.900035 3.07903 1.14837 3.15421 1.44226C3.22939 1.73388 3.26698 2.12802 3.26698 2.62468C3.26698 3.21247 3.20661 3.68749 3.08586 4.04974C2.96511 4.4097 2.78399 4.68879 2.54249 4.887C2.30328 5.08293 2.00027 5.18089 1.63347 5.18089C1.15048 5.18089 0.771144 5.00775 0.495474 4.66145C0.165126 4.24453 -4.86057e-05 3.5656 -4.86057e-05 2.62468ZM0.63217 2.62468C0.63217 3.44713 0.727857 3.99506 0.919231 4.26845C1.11288 4.53956 1.35096 4.67512 1.63347 4.67512C1.91597 4.67512 2.15291 4.53842 2.34429 4.26503C2.53794 3.99164 2.63476 3.44486 2.63476 2.62468C2.63476 1.79995 2.53794 1.25203 2.34429 0.980913C2.15291 0.7098 1.91369 0.574243 1.62663 0.574243C1.34413 0.574243 1.11858 0.693852 0.949988 0.93307C0.738109 1.23836 0.63217 1.80223 0.63217 2.62468ZM4.23752 2.16675V1.46618H4.93809V2.16675H4.23752ZM4.23752 5.09546V4.39489H4.93809V5.09546H4.23752ZM5.8437 2.62468C5.8437 2.03233 5.90407 1.55617 6.02482 1.19621C6.14785 0.833965 6.32897 0.554878 6.56819 0.358947C6.80968 0.163016 7.11269 0.0650507 7.47722 0.0650507C7.74605 0.0650507 7.98185 0.119729 8.18462 0.229086C8.38738 0.336164 8.55484 0.492225 8.68697 0.697269C8.81911 0.900035 8.92278 1.14837 8.99796 1.44226C9.07314 1.73388 9.11073 2.12802 9.11073 2.62468C9.11073 3.21247 9.05036 3.68749 8.92961 4.04974C8.80886 4.4097 8.62774 4.68879 8.38624 4.887C8.14703 5.08293 7.84402 5.18089 7.47722 5.18089C6.99422 5.18089 6.61489 5.00775 6.33922 4.66145C6.00887 4.24453 5.8437 3.5656 5.8437 2.62468ZM6.47592 2.62468C6.47592 3.44713 6.57161 3.99506 6.76298 4.26845C6.95663 4.53956 7.19471 4.67512 7.47722 4.67512C7.75972 4.67512 7.99666 4.53842 8.18803 4.26503C8.38169 3.99164 8.47851 3.44486 8.47851 2.62468C8.47851 1.79995 8.38169 1.25203 8.18803 0.980913C7.99666 0.7098 7.75744 0.574243 7.47038 0.574243C7.18788 0.574243 6.96233 0.693852 6.79374 0.93307C6.58186 1.23836 6.47592 1.80223 6.47592 2.62468ZM9.73953 2.62468C9.73953 2.03233 9.79991 1.55617 9.92065 1.19621C10.0437 0.833965 10.2248 0.554878 10.464 0.358947C10.7055 0.163016 11.0085 0.0650507 11.373 0.0650507C11.6419 0.0650507 11.8777 0.119729 12.0804 0.229086C12.2832 0.336164 12.4507 0.492225 12.5828 0.697269C12.7149 0.900035 12.8186 1.14837 12.8938 1.44226C12.969 1.73388 13.0066 2.12802 13.0066 2.62468C13.0066 3.21247 12.9462 3.68749 12.8254 4.04974C12.7047 4.4097 12.5236 4.68879 12.2821 4.887C12.0429 5.08293 11.7398 5.18089 11.373 5.18089C10.8901 5.18089 10.5107 5.00775 10.2351 4.66145C9.90471 4.24453 9.73953 3.5656 9.73953 2.62468ZM10.3718 2.62468C10.3718 3.44713 10.4674 3.99506 10.6588 4.26845C10.8525 4.53956 11.0905 4.67512 11.373 4.67512C11.6556 4.67512 11.8925 4.53842 12.0839 4.26503C12.2775 3.99164 12.3743 3.44486 12.3743 2.62468C12.3743 1.79995 12.2775 1.25203 12.0839 0.980913C11.8925 0.7098 11.6533 0.574243 11.3662 0.574243C11.0837 0.574243 10.8582 0.693852 10.6896 0.93307C10.4777 1.23836 10.3718 1.80223 10.3718 2.62468ZM15.2928 5.18089L16.7452 0.00012018H17.2373L15.7883 5.18089H15.2928ZM19.4791 2.62468C19.4791 2.03233 19.5395 1.55617 19.6602 1.19621C19.7833 0.833965 19.9644 0.554878 20.2036 0.358947C20.4451 0.163016 20.7481 0.0650507 21.1126 0.0650507C21.3815 0.0650507 21.6173 0.119729 21.82 0.229086C22.0228 0.336164 22.1902 0.492225 22.3224 0.697269C22.4545 0.900035 22.5582 1.14837 22.6334 1.44226C22.7086 1.73388 22.7461 2.12802 22.7461 2.62468C22.7461 3.21247 22.6858 3.68749 22.565 4.04974C22.4443 4.4097 22.2632 4.68879 22.0217 4.887C21.7824 5.08293 21.4794 5.18089 21.1126 5.18089C20.6296 5.18089 20.2503 5.00775 19.9746 4.66145C19.6443 4.24453 19.4791 3.5656 19.4791 2.62468ZM20.1113 2.62468C20.1113 3.44713 20.207 3.99506 20.3984 4.26845C20.592 4.53956 20.8301 4.67512 21.1126 4.67512C21.3951 4.67512 21.6321 4.53842 21.8234 4.26503C22.0171 3.99164 22.1139 3.44486 22.1139 2.62468C22.1139 1.79995 22.0171 1.25203 21.8234 0.980913C21.6321 0.7098 21.3929 0.574243 21.1058 0.574243C20.8233 0.574243 20.5977 0.693852 20.4291 0.93307C20.2173 1.23836 20.1113 1.80223 20.1113 2.62468ZM23.7167 2.16675V1.46618H24.4173V2.16675H23.7167ZM23.7167 5.09546V4.39489H24.4173V5.09546H23.7167ZM27.6399 5.09546H27.0247V1.1757C26.8766 1.31696 26.6818 1.45821 26.4404 1.59946C26.2011 1.74071 25.9858 1.84665 25.7945 1.91728V1.32265C26.1385 1.1609 26.4392 0.964965 26.6967 0.734861C26.9541 0.504756 27.1364 0.281486 27.2434 0.0650507H27.6399V5.09546ZM29.2187 2.62468C29.2187 2.03233 29.2791 1.55617 29.3998 1.19621C29.5228 0.833965 29.704 0.554878 29.9432 0.358947C30.1847 0.163016 30.4877 0.0650507 30.8522 0.0650507C31.121 0.0650507 31.3568 0.119729 31.5596 0.229086C31.7624 0.336164 31.9298 0.492225 32.062 0.697269C32.1941 0.900035 32.2978 1.14837 32.373 1.44226C32.4481 1.73388 32.4857 2.12802 32.4857 2.62468C32.4857 3.21247 32.4254 3.68749 32.3046 4.04974C32.1839 4.4097 32.0027 4.68879 31.7612 4.887C31.522 5.08293 31.219 5.18089 30.8522 5.18089C30.3692 5.18089 29.9899 5.00775 29.7142 4.66145C29.3839 4.24453 29.2187 3.5656 29.2187 2.62468ZM29.8509 2.62468C29.8509 3.44713 29.9466 3.99506 30.138 4.26845C30.3316 4.53956 30.5697 4.67512 30.8522 4.67512C31.1347 4.67512 31.3717 4.53842 31.563 4.26503C31.7567 3.99164 31.8535 3.44486 31.8535 2.62468C31.8535 1.79995 31.7567 1.25203 31.563 0.980913C31.3717 0.7098 31.1324 0.574243 30.8454 0.574243C30.5629 0.574243 30.3373 0.693852 30.1687 0.93307C29.9569 1.23836 29.8509 1.80223 29.8509 2.62468Z"
    fill="white" />
</svg>
