<svg width="10" height="10" viewBox="0 0 10 10" fill="none" xmlns="http://www.w3.org/2000/svg">
  <path
    d="M4.99921 3.33289C5.45747 3.33289 5.8324 2.95795 5.8324 2.4997C5.8324 2.04144 5.45747 1.6665 4.99921 1.6665C4.54095 1.6665 4.16602 2.04144 4.16602 2.4997C4.16602 2.95795 4.54095 3.33289 4.99921 3.33289ZM4.99921 4.16609C4.54095 4.16609 4.16602 4.54102 4.16602 4.99928C4.16602 5.45754 4.54095 5.83247 4.99921 5.83247C5.45747 5.83247 5.8324 5.45754 5.8324 4.99928C5.8324 4.54102 5.45747 4.16609 4.99921 4.16609ZM4.99921 6.66567C4.54095 6.66567 4.16602 7.0406 4.16602 7.49886C4.16602 7.95712 4.54095 8.33206 4.99921 8.33206C5.45747 8.33206 5.8324 7.95712 5.8324 7.49886C5.8324 7.0406 5.45747 6.66567 4.99921 6.66567Z"
    fill="white" />
</svg>
